<svg width="74" height="74" viewBox="0 0 74 74" xmlns="http://www.w3.org/2000/svg"><g fill="none" fill-rule="evenodd"><path d="M37.064 72.736c-19.738 0-35.74-16.012-35.74-35.765 0-19.75 16.002-35.764 35.74-35.764 19.738 0 35.74 16.013 35.74 35.765 0 19.754-16.002 35.766-35.74 35.766z" stroke-opacity=".333" stroke="#2897C5" stroke-width="1.3" fill="#FFF"/><path d="M58.183 22.46a2.6 2.6 0 0 0-2.6-2.602H19.196a2.6 2.6 0 0 0-2.6 2.6V48.47a2.6 2.6 0 0 0 2.6 2.6h7.797v10.405L37.39 51.07h18.194a2.6 2.6 0 0 0 2.6-2.6V22.46z" stroke="#2897C5" stroke-width="1.3" fill="#FCFCFD"/><path d="M54.948 25.152c0-1.136-.983-2.056-2.195-2.056H22.026c-1.212 0-2.195.92-2.195 2.056v20.565c0 1.136.984 2.057 2.196 2.057h7.82v6.59l6.874-6.59h16.033c1.212 0 2.195-.92 2.195-2.057V25.152z" fill="#F2F9FB"/><path d="M34.045 28.992c-2.742.835-4.173 2.685-4.054 5.31 1.73.476 3.4 1.908 3.4 4.056v.477c0 2.267-1.61 3.998-4.055 3.998-2.623 0-4.292-2.03-4.292-5.25v-.597c0-4.057 1.073-6.86 2.98-8.71 1.55-1.61 3.876-2.566 5.605-2.566 1.252 0 1.848.716 1.848 1.67 0 .836-.596 1.373-1.43 1.612M48.955 28.992c-2.742.835-4.173 2.685-4.054 5.31 1.73.476 3.4 1.908 3.4 4.056v.477c0 2.267-1.61 3.998-4.055 3.998-2.623 0-4.293-2.03-4.293-5.25v-.597c0-4.057 1.074-6.86 2.982-8.71 1.55-1.61 3.874-2.566 5.604-2.566 1.25 0 1.848.716 1.848 1.67 0 .836-.597 1.373-1.43 1.612" stroke="#FFF" stroke-width="4" fill="#FFF"/><path d="M34.045 28.992c-2.742.835-4.173 2.685-4.054 5.31 1.73.476 3.4 1.908 3.4 4.056v.477c0 2.267-1.61 3.998-4.055 3.998-2.623 0-4.292-2.03-4.292-5.25v-.597c0-4.057 1.073-6.86 2.98-8.71 1.55-1.61 3.876-2.566 5.605-2.566 1.252 0 1.848.716 1.848 1.67 0 .836-.596 1.373-1.43 1.612M48.955 28.992c-2.742.835-4.173 2.685-4.054 5.31 1.73.476 3.4 1.908 3.4 4.056v.477c0 2.267-1.61 3.998-4.055 3.998-2.623 0-4.293-2.03-4.293-5.25v-.597c0-4.057 1.074-6.86 2.982-8.71 1.55-1.61 3.874-2.566 5.604-2.566 1.25 0 1.848.716 1.848 1.67 0 .836-.597 1.373-1.43 1.612" stroke="#FE336F" stroke-width="1.3" fill="#FFF"/></g></svg>