<svg width="74" height="74" viewBox="0 0 74 74" xmlns="http://www.w3.org/2000/svg"><g stroke-width="1.3" fill="#FFF" fill-rule="evenodd"><path d="M36.74 72.86C17.002 72.86 1 56.845 1 37.093S17.002 1.33 36.74 1.33c19.738 0 35.74 16.012 35.74 35.764 0 19.752-16.002 35.765-35.74 35.765z" stroke-opacity=".333" stroke="#2897C5"/><path stroke="#FE336F" d="M55.99 43.323l-7.32 10.08-11.84 3.85-11.84-3.85-7.318-10.08V30.865l7.32-10.08 11.84-3.85 11.84 3.85 7.317 10.08z"/><path stroke="#FE336F" d="M49.13 33.03l6.86-2.165-7.32-10.08-11.84-3.85v7.153"/><path stroke="#FE336F" d="M44.432 47.498l4.24 5.905 7.317-10.08V30.865l-6.86 2.165z"/><path stroke="#FE336F" d="M44.432 47.498l4.24 5.905-11.84 3.85-11.84-3.85 4.238-5.905zM24.532 33.03l-6.86-2.165v12.458l7.318 10.08 4.24-5.905z"/><path stroke="#FE336F" d="M29.23 47.498L24.532 33.03l12.3-8.942L49.13 33.03l-4.698 14.468z"/></g></svg>