<svg width="74" height="74" viewBox="0 0 74 74" xmlns="http://www.w3.org/2000/svg"><g fill="none" fill-rule="evenodd"><path d="M72.804 36.765c0 19.753-16.002 35.765-35.74 35.765-19.738 0-35.74-16.012-35.74-35.765C1.325 17.013 17.327 1 37.065 1c19.738 0 35.74 16.013 35.74 35.765" stroke-opacity=".333" stroke="#2897C5" stroke-width="1.3" fill="#FFF"/><path stroke="#2897C5" stroke-width="1.3" fill="#FCFCFD" d="M40.405 29.612h-7.798l1.95-6.503h3.898zM36.506 14.005l-3.9 6.503 1.95 2.6h3.9l1.95-2.6z"/><path stroke="#2897C5" stroke-width="1.3" fill="#FCFCFD" d="M34.557 23.11l-1.95-2.602 3.9-6.503v9.104zM47.32 25.072c-3.7-2.262-1.77-5.76.255-6.702 2.027-.942 4.534-1.18 5.826-3.297 1.45 5.852.047 13.743-6.08 10"/><path d="M47.32 25.072c-3.7-2.262-1.77-5.76.255-6.702 2.027-.942 4.534-1.18 5.826-3.297 1.45 5.852.047 13.743-6.08 10" stroke="#2897C5" stroke-width="1.3" fill="#F2F9FB"/><path d="M27.457 19.44l-3.684-3.73-1.34 5.07c.186.692.9 1.106 1.59.922.692-.185 1.107-.9.922-1.592.185.69.9 1.106 1.59.92.69-.183 1.106-.9.922-1.59M49.302 25.52l-3.327-2.033a.65.65 0 0 0-.894.216l-.676 1.11-2.46 4.8H47.3l1.538-2.09.678-1.108a.65.65 0 0 0-.216-.894" stroke="#2897C5" stroke-width="1.3" fill="#FCFCFD"/><path stroke="#2897C5" stroke-width="1.3" fill="#FCFCFD" d="M44.404 24.813l-2.46 4.8h.878l3.577-3.58z"/><path stroke="#2897C5" stroke-width="1.3" fill="#FCFCFD" d="M47.302 29.612l1.54-2.087-4.438-2.71-2.46 4.797zM30.167 29.612l-2.626-9.854c-.006-.026-.04-.02-.04.006a1.307 1.307 0 0 1-.964 1.268 1.304 1.304 0 0 1-1.453-.595c-.03-.048-.094-.03-.094.026a1.305 1.305 0 0 1-.966 1.238 1.304 1.304 0 0 1-1.467-.617c-.013-.023-.046-.012-.04.015l2.27 8.514h5.38z"/><path d="M27.477 29.612l-2.444-9.17c-.008-.03-.044-.024-.044.006a1.306 1.306 0 0 1-.966 1.253 1.306 1.306 0 0 1-1.46-.605c-.015-.026-.05-.013-.042.015l2.265 8.502h2.69z" stroke="#2897C5" stroke-width="1.3" fill="#FCFCFD"/><path d="M49.502 47.92V36.76c4.32.01 4.55.25 4.55 3.49 0 5.797-2.098 7.286-4.55 7.67m8.448-7.67c0-2.167-.283-4.84-2.488-6.277-1.514-.987-3.517-1.106-5.96-1.114v-1.947a1.3 1.3 0 0 0-1.3-1.3H24.81a1.3 1.3 0 0 0-1.3 1.3v22.11a2.6 2.6 0 0 0 2.6 2.6h20.793a2.6 2.6 0 0 0 2.6-2.6v-1.195c3.58-.447 8.447-2.462 8.447-11.58" stroke="#FFF" stroke-width="4" fill="#FFF"/><path d="M49.502 47.92V36.76c4.32.01 4.55.25 4.55 3.49 0 5.797-2.098 7.286-4.55 7.67m8.448-7.67c0-2.167-.283-4.84-2.488-6.277-1.514-.987-3.517-1.106-5.96-1.114v-1.947a1.3 1.3 0 0 0-1.3-1.3H24.81a1.3 1.3 0 0 0-1.3 1.3v22.11a2.6 2.6 0 0 0 2.6 2.6h20.793a2.6 2.6 0 0 0 2.6-2.6v-1.195c3.58-.447 8.447-2.462 8.447-11.58" stroke="#2897C5" stroke-width="1.3" fill="#FCFCFD"/><path d="M47.732 33.275c0-.574-.465-1.038-1.037-1.038H28.022c-.573 0-1.037.464-1.037 1.038v17.648c0 1.146.93 2.076 2.074 2.076h16.597c1.145 0 2.075-.93 2.075-2.077" fill="#F2F9FB"/><path d="M44.304 42.617c0 4.31-3.492 7.804-7.798 7.804s-7.798-3.493-7.798-7.803c0-4.31 3.492-7.803 7.798-7.803s7.798 3.494 7.798 7.803" stroke="#FE336F" stroke-width="1.3" fill="#FFF"/><path d="M39.82 45.11a4.14 4.14 0 0 1-3.314 1.656 4.14 4.14 0 0 1-3.405-1.78M39.755 40.016a.65.65 0 1 1-1.3 0 .65.65 0 0 1 1.3 0M34.557 40.016a.65.65 0 1 1-1.3 0 .65.65 0 0 1 1.3 0" stroke="#FE336F" stroke-width="1.3" fill="#FFF"/></g></svg>