<svg width="74" height="74" viewBox="0 0 74 74" xmlns="http://www.w3.org/2000/svg"><g stroke-width="1.3" fill="none" fill-rule="evenodd"><path d="M72.804 37.09c0 19.753-16.002 35.765-35.74 35.765-19.738 0-35.74-16.012-35.74-35.765 0-19.752 16.002-35.765 35.74-35.765 19.738 0 35.74 16.013 35.74 35.765" stroke-opacity=".333" stroke="#2897C5" fill="#FFF"/><path stroke="#2897C5" fill="#F2F9FB" d="M30.628 45.755h3.215l.18-23.96H26.74l-.177 4.56h-4.467l.18-8.224h28.363l.178 8.225H46.35l-.178-4.56h-7.147l-.178 23.96h3.618v3.666H30.628z"/><path d="M21.47 58.563c3.69 0 1.23-4.615 4.714-4.615 3.485 0 .82 4.615 4.92 4.615 4.098 0 1.844-4.615 5.533-4.615 3.69 0 1.487 4.615 5.022 4.615s2.457-4.615 5.225-4.615c2.767 0 1.025 4.615 5.124 4.615" stroke="#FE336F"/></g></svg>