<svg width="74" height="74" viewBox="0 0 74 74" xmlns="http://www.w3.org/2000/svg"><g fill="none" fill-rule="evenodd"><path d="M72.57 37.255c0 19.752-16 35.765-35.74 35.765-19.737 0-35.74-16.013-35.74-35.765S17.094 1.49 36.83 1.49c19.74 0 35.74 16.013 35.74 35.765" stroke-opacity=".333" stroke="#2897C5" stroke-width="1.3" fill="#FFF"/><path d="M21.514 48.418l-4.298 5.445c-.67.848-.56 2.074.252 2.788l.158.138a2.03 2.03 0 0 0 2.795-.106l5.08-4.397a19.604 19.604 0 0 1-3.986-3.867M57.053 53.863L52.55 48.16a19.605 19.605 0 0 1-3.965 3.966l5.263 4.556a2.03 2.03 0 0 0 2.796.106l.156-.137c.812-.714.923-1.94.253-2.787" stroke="#2897C5" stroke-width="1.3" fill="#F2F9FB"/><path d="M56.426 36.486c0 10.774-8.728 19.508-19.495 19.508-10.765 0-19.493-8.734-19.493-19.508 0-10.773 8.728-19.508 19.494-19.508 10.768 0 19.496 8.735 19.496 19.508" stroke="#2897C5" stroke-width="1.3" fill="#FCFCFD"/><path d="M51.145 36.486c0 7.856-6.363 14.225-14.214 14.225-7.848 0-14.212-6.368-14.212-14.224s6.364-14.224 14.213-14.224c7.852 0 14.215 6.368 14.215 14.224" stroke="#2897C5" stroke-width="1.3" fill="#F2F9FB"/><path d="M36.93 45.423c-4.93 0-8.93-4-8.93-8.937 0-4.936 4-8.937 8.93-8.937 4.934 0 8.932 4 8.932 8.936s-3.998 8.937-8.93 8.937z" stroke="#2897C5" stroke-width="1.3" fill="#FCFCFD"/><path d="M40.358 36.486a3.428 3.428 0 0 1-3.427 3.43 3.428 3.428 0 0 1-3.425-3.43 3.428 3.428 0 0 1 3.426-3.43 3.428 3.428 0 0 1 3.428 3.43M52.918 19.28a1.24 1.24 0 0 1 .194-.167v-3.317C51.864 17.044 47.574 20.13 48 24.45l4.918-5.17zM54.892 20.85c-.052.08-.11.156-.18.223l-4.897 4.664c4.075.347 6.988-3.703 8.17-4.886h-3.093z" stroke="#2897C5" stroke-width="1.3" fill="#FCFCFD"/><path d="M37.34 37.338a.665.665 0 0 1-.94-.942L52.918 19.28a1.27 1.27 0 0 1 1.815-.024 1.274 1.274 0 0 1-.022 1.817L37.34 37.338z" stroke="#FFF" stroke-width="4" fill="#FFF"/><path d="M53.112 19.112a1.27 1.27 0 0 1 1.62.144 1.274 1.274 0 0 1 .183 1.565c1.21 0 3.07.03 3.07.03-1.182 1.184-4.095 5.234-8.17 4.887l.307-.367-12.78 11.968a.665.665 0 0 1-.942-.942l11.592-12.013c-.374-4.284 3.88-7.345 5.12-8.587v3.316zm-.102.08z" stroke="#FE336F" stroke-width="1.3" fill="#FFF"/></g></svg>