<svg width="74" height="74" viewBox="0 0 74 74" xmlns="http://www.w3.org/2000/svg"><g stroke-width="1.3" fill="none" fill-rule="evenodd"><path d="M72.48 36.765c0 19.753-16.002 35.765-35.74 35.765C17.002 72.53 1 56.518 1 36.765 1 17.013 17.002 1 36.74 1c19.738 0 35.74 16.013 35.74 35.765" stroke-opacity=".333" stroke="#2897C5" fill="#FFF"/><path d="M21.512 26.115a15.5 15.5 0 0 1-1.15-3.006h3.473v1.43c0 1.947.437 3.79 1.21 5.444-1.432-.783-2.602-2.067-3.533-3.87m28.315-1.574v-1.43H53.3a15.458 15.458 0 0 1-1.15 3.005c-.93 1.802-2.1 3.086-3.532 3.87a12.84 12.84 0 0 0 1.21-5.445m7.788-3.194a1.953 1.953 0 0 0-1.94-2.14h-5.85v-2.6h-25.99v2.6h-5.848a1.95 1.95 0 0 0-1.94 2.14c.984 10.19 7.47 13.024 17.367 15.64 2.27 4.62.3 9.893-3.367 10.722a1.297 1.297 0 0 0-1.014 1.268v1.445H44.63v-1.444c0-.61-.422-1.134-1.015-1.268-3.667-.83-5.638-6.103-3.367-10.722 9.896-2.616 16.383-5.45 17.368-15.64" stroke="#2897C5" fill="#FCFCFD"/><path d="M49.827 56.923a1.3 1.3 0 0 1-1.3 1.3H25.134a1.3 1.3 0 0 1-1.3-1.3V51.72a1.3 1.3 0 0 1 1.3-1.3h23.393a1.3 1.3 0 0 1 1.3 1.3v5.203z" stroke="#2897C5" fill="#F2F9FB"/><path d="M53.02 42.69a.065.065 0 0 0 .056-.065v-.016a.065.065 0 0 0-.055-.065c-1.808-.272-2.85-1.313-3.12-3.123a.065.065 0 0 0-.065-.056h-.016a.065.065 0 0 0-.065.056c-.272 1.81-1.312 2.85-3.122 3.123a.066.066 0 0 0-.055.064v.015c0 .033.023.06.056.065 1.81.272 2.85 1.313 3.12 3.124a.065.065 0 0 0 .065.055h.022c.028 0 .052-.022.057-.05.27-1.815 1.31-2.858 3.12-3.13M26.995 40.783a.104.104 0 0 0 .09-.103v-.027a.104.104 0 0 0-.09-.102c-2.895-.434-4.56-2.1-4.994-4.997a.103.103 0 0 0-.102-.09h-.026a.104.104 0 0 0-.103.09c-.435 2.897-2.1 4.563-4.995 4.998a.104.104 0 0 0-.088.103v.027c0 .05.037.095.088.103 2.896.434 4.56 2.1 4.994 4.998.007.052.05.09.102.09h.038a.09.09 0 0 0 .09-.08c.432-2.902 2.096-4.572 4.995-5.007" stroke="#FE336F" fill="#FFF"/></g></svg>